<svg width="233" height="223" viewBox="0 0 233 223" fill="none" xmlns="http://www.w3.org/2000/svg">
<path d="M111.624 213.571C111.624 218.683 107.418 222.86 102.225 222.896H102.188L102.078 90.368C101.969 75.2107 83.5718 67.398 72.3435 77.7669C58.6282 90.476 40.9264 109.702 22.0542 110.89L21.469 110.926C21.1764 110.962 20.8838 110.962 20.5912 110.962C5.08379 110.962 0 97.1006 0 97.1006C56.3241 96.5606 101.749 55.7689 101.42 0.360032V0.0720062H101.456C104.017 0.396035 106.357 1.65615 108.04 3.56432C109.978 5.76051 111.039 8.60476 111.002 11.485C111.185 31.4308 111.441 170.079 111.624 213.571Z" fill="#313131"/>
<path d="M232.977 121.979C232.026 121.979 231.038 122.015 230.087 122.015C174.824 123.527 130.496 168.099 130.496 222.86C130.496 222.86 121.133 222.716 118.354 212.815C117.403 209.647 117.293 206.118 117.915 202.374C120.658 184.876 138.286 162.446 151.599 149.053C161.657 138.936 154.416 126.623 140.079 126.623H123.035C121.901 126.623 121.023 125.723 121.023 124.643C121.023 124.643 121.023 124.643 121.023 124.607C121.133 111.646 121.609 39.7475 121.792 11.413C121.755 8.49675 122.816 5.6885 124.754 3.49231C126.436 1.58414 128.777 0.324029 131.337 0H131.374V0.288026C131.045 55.7329 176.506 96.5246 232.867 97.0286C232.867 97.0286 227.783 110.89 212.276 110.89C211.983 110.89 211.691 110.89 211.398 110.854C211.215 110.854 211.069 110.854 210.886 110.818C210.74 110.818 210.593 110.818 210.484 110.782C191.758 109.414 174.129 90.332 160.487 77.6949C149.259 67.326 130.862 75.1387 130.752 90.296L130.606 112.942C130.569 117.874 134.629 117.226 139.64 117.226H222.955C224.528 117.298 226.101 117.55 227.637 118.018C230.27 118.955 232.977 120.359 232.977 121.979Z" fill="#313131"/>
</svg>
